<svg width="55" height="55" viewBox="0 0 55 55" fill="none" xmlns="http://www.w3.org/2000/svg">
<path d="M41.25 6.875H13.75C11.9266 6.875 10.178 7.59933 8.88864 8.88864C7.59933 10.178 6.875 11.9266 6.875 13.75V41.25C6.875 43.0734 7.59933 44.822 8.88864 46.1114C10.178 47.4007 11.9266 48.125 13.75 48.125H41.25C43.0734 48.125 44.822 47.4007 46.1114 46.1114C47.4007 44.822 48.125 43.0734 48.125 41.25V13.75C48.125 11.9266 47.4007 10.178 46.1114 8.88864C44.822 7.59933 43.0734 6.875 41.25 6.875ZM37.3542 22.0229L26.8812 35.7729C26.6678 36.0502 26.3936 36.275 26.0798 36.4299C25.7659 36.5848 25.4208 36.6658 25.0708 36.6667C24.7227 36.6685 24.3788 36.5911 24.0651 36.4402C23.7514 36.2893 23.4762 36.0689 23.2604 35.7958L17.6687 28.6687C17.4837 28.431 17.3472 28.1591 17.2672 27.8686C17.1872 27.5782 17.1652 27.2748 17.2024 26.9758C17.2397 26.6768 17.3354 26.3881 17.4843 26.1261C17.6331 25.8641 17.832 25.634 18.0698 25.449C18.5499 25.0752 19.1589 24.9074 19.7627 24.9826C20.0617 25.0199 20.3505 25.1156 20.6124 25.2645C20.8744 25.4133 21.1045 25.6123 21.2896 25.85L25.025 30.6167L33.6875 19.1583C33.8711 18.9176 34.1003 18.7153 34.362 18.5632C34.6237 18.411 34.9129 18.3118 35.2129 18.2714C35.513 18.231 35.8181 18.25 36.1108 18.3275C36.4034 18.405 36.678 18.5393 36.9187 18.7229C37.1595 18.9065 37.3617 19.1357 37.5139 19.3974C37.6661 19.6592 37.7652 19.9483 37.8057 20.2484C37.8461 20.5484 37.827 20.8535 37.7496 21.1462C37.6721 21.4389 37.5377 21.7134 37.3542 21.9542V22.0229Z" fill="#4DF94A"/>
</svg>
