<svg width="49" height="49" viewBox="0 0 49 49" fill="none" xmlns="http://www.w3.org/2000/svg">
<path d="M38.7917 40.8333H10.2084C9.66693 40.8333 9.14763 41.0484 8.76474 41.4313C8.38185 41.8142 8.16675 42.3335 8.16675 42.875C8.16675 43.4165 8.38185 43.9358 8.76474 44.3187C9.14763 44.7015 9.66693 44.9166 10.2084 44.9166H38.7917C39.3332 44.9166 39.8525 44.7015 40.2354 44.3187C40.6183 43.9358 40.8334 43.4165 40.8334 42.875C40.8334 42.3335 40.6183 41.8142 40.2354 41.4313C39.8525 41.0484 39.3332 40.8333 38.7917 40.8333Z" fill="white"/>
<path d="M10.2077 36.75H10.3915L18.9052 35.9741C19.8378 35.8812 20.7101 35.4703 21.3756 34.8104L39.7506 16.4354C40.4638 15.6819 40.8493 14.6765 40.8225 13.6394C40.7957 12.6023 40.3589 11.6181 39.6077 10.9025L34.0135 5.30831C33.2834 4.6225 32.3267 4.229 31.3253 4.20265C30.324 4.1763 29.3479 4.51894 28.5827 5.16539L10.2077 23.5404C9.54778 24.2059 9.13687 25.0782 9.04397 26.0108L8.16605 34.5246C8.13855 34.8236 8.17735 35.125 8.27969 35.4073C8.38204 35.6897 8.5454 35.9459 8.75813 36.1579C8.94891 36.3471 9.17516 36.4968 9.42391 36.5984C9.67266 36.7 9.93902 36.7515 10.2077 36.75V36.75ZM31.1756 8.16664L36.7494 13.7404L32.666 17.7216L27.1944 12.25L31.1756 8.16664ZM13.0048 26.3579L24.4994 14.945L30.0119 20.4575L18.5786 31.8908L12.4536 32.4625L13.0048 26.3579Z" fill="white"/>
</svg>
