<svg width="35" height="33" viewBox="0 0 35 33" fill="none" xmlns="http://www.w3.org/2000/svg">
<path d="M6.00493 4.00376C6.53553 4.00376 7.0444 3.79298 7.41959 3.41779C7.79478 3.0426 8.00556 2.53373 8.00556 2.00313C8.00556 1.47253 7.79478 0.963663 7.41959 0.588473C7.0444 0.213283 6.53553 0.00250244 6.00493 0.00250244H2.00368C1.47308 0.00250244 0.964212 0.213283 0.589022 0.588473C0.213832 0.963663 0.00305176 1.47253 0.00305176 2.00313V30.0119C0.00305176 30.5425 0.213832 31.0514 0.589022 31.4266C0.964212 31.8018 1.47308 32.0125 2.00368 32.0125H6.00493C6.53553 32.0125 7.0444 31.8018 7.41959 31.4266C7.79478 31.0514 8.00556 30.5425 8.00556 30.0119C8.00556 29.4813 7.79478 28.9724 7.41959 28.5972C7.0444 28.2221 6.53553 28.0113 6.00493 28.0113H4.00431V4.00376H6.00493Z" fill="white"/>
<path d="M33.654 14.8472L28.0122 6.84465C27.7063 6.41334 27.242 6.12071 26.7209 6.03074C26.1998 5.94076 25.6642 6.06076 25.2314 6.3645C25.015 6.51612 24.8308 6.7091 24.6894 6.93229C24.548 7.15548 24.4522 7.40447 24.4076 7.66488C24.363 7.92529 24.3703 8.19196 24.4293 8.4495C24.4883 8.70704 24.5977 8.95035 24.7512 9.16538L28.1923 14.0069H28.0122H12.0072C11.4766 14.0069 10.9678 14.2177 10.5926 14.5929C10.2174 14.9681 10.0066 15.4769 10.0066 16.0075C10.0066 16.5381 10.2174 17.047 10.5926 17.4222C10.9678 17.7974 11.4766 18.0081 12.0072 18.0081H28.0122L24.4111 22.8097C24.2535 23.0198 24.1388 23.259 24.0736 23.5135C24.0084 23.768 23.9939 24.0329 24.0311 24.293C24.0682 24.553 24.1563 24.8033 24.2901 25.0293C24.424 25.2554 24.601 25.4529 24.8112 25.6105C25.1575 25.8703 25.5787 26.0107 26.0116 26.0107C26.3222 26.0107 26.6285 25.9383 26.9063 25.7994C27.1841 25.6605 27.4258 25.4589 27.6121 25.2104L33.614 17.2079C33.8702 16.8695 34.0122 16.4584 34.0194 16.0341C34.0266 15.6097 33.8986 15.194 33.654 14.8472V14.8472Z" fill="white"/>
</svg>
